<?xml version="1.0" standalone="no"?>
<!DOCTYPE svg PUBLIC "-//W3C//DTD SVG 20010904//EN"
 "http://www.w3.org/TR/2001/REC-SVG-20010904/DTD/svg10.dtd">
<svg version="1.0" xmlns="http://www.w3.org/2000/svg"
 width="512.000000pt" height="512.000000pt" viewBox="0 0 512.000000 512.000000"
 preserveAspectRatio="xMidYMid meet">
<metadata>
Created by potrace 1.15, written by Peter Selinger 2001-2017
</metadata>
<g transform="translate(0.000000,512.000000) scale(0.100000,-0.100000)"
fill="#333333" stroke="none">
<path d="M2463 5035 c-28 -14 -99 -70 -159 -124 -199 -181 -1560 -1554 -1587
-1601 -41 -73 -40 -113 6 -137 29 -16 72 -18 440 -21 l407 -3 0 -817 c0 -894
0 -892 59 -1014 67 -141 203 -260 351 -308 l75 -25 505 0 505 0 75 25 c148 48
284 167 351 308 59 122 59 120 59 1015 l0 817 386 0 c457 0 497 6 497 73 -1
63 -41 107 -792 861 -416 417 -799 797 -851 844 -148 132 -225 158 -327 107z"/>
<path d="M0 938 c0 -490 1 -495 65 -626 69 -139 215 -255 375 -297 83 -22
4157 -22 4240 0 160 42 306 158 375 297 64 131 65 136 65 626 l0 442 -200 0
-200 0 0 -412 c0 -380 -2 -416 -19 -453 -22 -48 -54 -79 -103 -100 -33 -13
-255 -15 -2038 -15 -1783 0 -2005 2 -2038 15 -49 21 -81 52 -103 100 -17 37
-19 73 -19 453 l0 412 -200 0 -200 0 0 -442z"/>
</g>
</svg>
